<?xml version="1.0" encoding="utf-8"?>
<!-- Generator: Adobe Illustrator 24.0.3, SVG Export Plug-In . SVG Version: 6.00 Build 0)  -->
<svg version="1.1" id="圖層_1" xmlns="http://www.w3.org/2000/svg" xmlns:xlink="http://www.w3.org/1999/xlink" x="0px" y="0px"
	 viewBox="0 0 244.8 43.1" style="enable-background:new 0 0 244.8 43.1;" xml:space="preserve">
<g>
	<path d="M39.2,27.7l-1.5,14.5H1.1V41h1.4c1.2,0,2.2-0.2,2.9-0.6c0.5-0.3,0.9-0.8,1.2-1.5c0.2-0.5,0.3-1.8,0.3-3.8V8
		c0-2.1-0.1-3.4-0.3-3.9s-0.7-1-1.4-1.4C4.6,2.3,3.7,2.1,2.5,2.1H1.1V1h21.9v1.1h-1.8c-1.2,0-2.2,0.2-2.9,0.6
		c-0.5,0.3-0.9,0.8-1.2,1.5C16.9,4.7,16.8,6,16.8,8v26.2c0,2.1,0.1,3.4,0.4,4c0.2,0.6,0.7,1,1.4,1.3c0.5,0.2,1.7,0.3,3.7,0.3h3.4
		c2.2,0,4-0.4,5.5-1.2c1.5-0.8,2.7-2,3.8-3.6c1.1-1.7,2.1-4.1,3-7.3H39.2z"/>
	<path d="M66.7,26.9H51.1c0.2,3.8,1.2,6.7,3,8.9c1.4,1.7,3.1,2.5,5,2.5c1.2,0,2.3-0.3,3.3-1c1-0.7,2.1-1.9,3.2-3.7l1,0.7
		c-1.5,3.1-3.2,5.4-5.1,6.7c-1.9,1.3-4,2-6.5,2c-4.2,0-7.4-1.6-9.6-4.9c-1.7-2.6-2.6-5.8-2.6-9.7c0-4.7,1.3-8.5,3.8-11.3
		c2.6-2.8,5.6-4.2,9-4.2c2.9,0,5.4,1.2,7.5,3.5C65.4,18.8,66.5,22.3,66.7,26.9z M59.2,24.9c0-3.3-0.2-5.5-0.5-6.7
		c-0.4-1.2-0.9-2.1-1.7-2.8c-0.4-0.4-1-0.5-1.7-0.5c-1.1,0-1.9,0.5-2.6,1.5c-1.2,1.8-1.8,4.3-1.8,7.4v1.1H59.2z"/>
	<path d="M80.4,3.4v10.4h6.7v3h-6.7v17.5c0,1.6,0.1,2.7,0.2,3.2c0.2,0.5,0.4,0.9,0.8,1.2c0.4,0.3,0.7,0.4,1.1,0.4c1.3,0,2.6-1,3.7-3
		l0.9,0.7c-1.6,3.9-4.3,5.8-8,5.8c-1.8,0-3.3-0.5-4.6-1.5c-1.2-1-2-2.1-2.4-3.4c-0.2-0.7-0.3-2.5-0.3-5.6V16.8h-3.7v-1.1
		c2.6-1.8,4.7-3.7,6.5-5.7s3.4-4.2,4.7-6.6H80.4z"/>
	<path d="M91.5,22.4v-1c1.8-0.8,3.1-1.8,3.9-3c0.8-1.2,1.2-2.5,1.2-3.8c0-0.2-0.1-0.4-0.2-0.6c-0.1-0.1-0.2-0.2-0.3-0.2
		c-0.1,0-0.2,0.1-0.4,0.2c-0.5,0.3-1,0.4-1.7,0.4c-0.9,0-1.7-0.4-2.4-1.1c-0.7-0.7-1-1.6-1-2.5c0-1,0.4-1.9,1.2-2.7s1.7-1.2,2.8-1.2
		c1.3,0,2.5,0.5,3.4,1.6c0.9,1,1.4,2.5,1.4,4.3c0,2.2-0.7,4.2-2,5.9C96.1,20.4,94.1,21.6,91.5,22.4z"/>
	<path d="M120.9,13l0.5,9.7h-1c-1.2-2.9-2.5-4.8-3.8-5.9c-1.3-1.1-2.6-1.6-4-1.6c-0.8,0-1.5,0.3-2.1,0.8c-0.6,0.6-0.9,1.2-0.9,1.9
		c0,0.5,0.2,1.1,0.6,1.6c0.6,0.8,2.5,2.3,5.4,4.3c3,2,4.9,3.7,5.9,5.1c0.9,1.4,1.4,3,1.4,4.7c0,1.6-0.4,3.1-1.2,4.6
		c-0.8,1.5-1.9,2.7-3.3,3.5s-3,1.2-4.8,1.2c-1.4,0-3.2-0.4-5.4-1.3c-0.6-0.2-1-0.3-1.2-0.3c-0.7,0-1.2,0.5-1.7,1.5h-1l-0.5-10.2h1
		c0.9,2.7,2.2,4.7,3.7,6c1.6,1.3,3.1,2,4.5,2c1,0,1.8-0.3,2.4-0.9c0.6-0.6,0.9-1.3,0.9-2.2c0-1-0.3-1.8-0.9-2.5
		c-0.6-0.7-2-1.8-4.1-3.2c-3.1-2.1-5.1-3.8-6-4.9c-1.3-1.7-2-3.5-2-5.5c0-2.2,0.8-4.2,2.3-5.9c1.5-1.8,3.7-2.7,6.5-2.7
		c1.5,0,3,0.4,4.5,1.1c0.5,0.3,1,0.5,1.3,0.5c0.4,0,0.7-0.1,0.9-0.2c0.2-0.2,0.6-0.6,1.1-1.3H120.9z"/>
	<path d="M183.5,0v14.5h-1.1c-1.4-4-3.4-7-6.1-9s-5.7-3.1-8.9-3.1c-3.1,0-5.6,0.9-7.7,2.6c-2,1.7-3.5,4.1-4.3,7.2
		c-0.8,3.1-1.3,6.3-1.3,9.5c0,3.9,0.5,7.4,1.4,10.4s2.4,5.2,4.5,6.6c2.1,1.4,4.5,2.1,7.4,2.1c1,0,2-0.1,3.1-0.3
		c1-0.2,2.1-0.5,3.2-0.9V31c0-1.6-0.1-2.7-0.3-3.1c-0.2-0.5-0.7-0.9-1.4-1.3c-0.7-0.4-1.5-0.6-2.5-0.6h-1.1v-1.1h20V26
		c-1.5,0.1-2.6,0.3-3.2,0.6s-1.1,0.8-1.4,1.6c-0.2,0.4-0.3,1.3-0.3,2.8v8.6c-2.6,1.2-5.4,2.1-8.2,2.7s-5.8,0.9-8.8,0.9
		c-3.9,0-7.1-0.5-9.7-1.6s-4.9-2.5-6.8-4.2c-2-1.7-3.5-3.7-4.6-5.8c-1.4-2.8-2.1-5.9-2.1-9.4c0-6.2,2.2-11.4,6.5-15.7
		C154,2.1,159.5,0,166.1,0c2,0,3.9,0.2,5.5,0.5c0.9,0.2,2.3,0.6,4.3,1.4s3.2,1.1,3.5,1.1c0.6,0,1.1-0.2,1.6-0.6s0.9-1.2,1.3-2.4
		H183.5z"/>
	<path d="M204.5,12.9c2.5,0,4.8,0.6,6.9,1.9s3.7,3.1,4.8,5.4c1.1,2.3,1.7,4.9,1.7,7.7c0,4-1,7.4-3.1,10.1c-2.5,3.3-5.9,4.9-10.2,4.9
		c-4.3,0-7.6-1.5-9.9-4.5c-2.3-3-3.5-6.5-3.5-10.4c0-4.1,1.2-7.6,3.5-10.6S200.4,12.9,204.5,12.9z M204.6,15.1c-1,0-1.9,0.4-2.7,1.2
		s-1.2,2.3-1.5,4.6s-0.3,5.5-0.3,9.6c0,2.2,0.1,4.2,0.4,6.1c0.2,1.4,0.7,2.5,1.4,3.3c0.7,0.7,1.6,1.1,2.5,1.1c0.9,0,1.7-0.3,2.3-0.8
		c0.8-0.7,1.3-1.6,1.6-2.9c0.4-1.9,0.6-5.8,0.6-11.7c0-3.4-0.2-5.8-0.6-7.1c-0.4-1.3-1-2.2-1.7-2.8
		C206.1,15.3,205.4,15.1,204.6,15.1z"/>
	<path d="M231.3,32.6c1.3,0.4,2.3,1.1,3,2.3c0.7,1.2,0.8,2.4,0.5,3.8c-0.4,1.3-1.1,2.3-2.3,3c-1.2,0.7-2.4,0.8-3.7,0.5
		c-1.3-0.4-2.3-1.1-3-2.3s-0.8-2.4-0.5-3.7s1.1-2.3,2.3-3C228.7,32.4,230,32.2,231.3,32.6z M233.1,28.5l-1.3-0.3
		c0.5-2.3,0.7-5.1,0.8-8.5l0.2-6.8c0.1-4.1,0.4-6.9,0.8-8.6c0.4-1.5,1.2-2.6,2.3-3.3s2.4-0.8,3.9-0.4c1.4,0.4,2.5,1.2,3.1,2.3
		c0.7,1.2,0.8,2.5,0.4,3.9c-0.4,1.5-1.6,4.1-3.7,7.9l-3.3,6C235.3,22.9,234.2,25.5,233.1,28.5z"/>
</g>
</svg>
