<?xml version="1.0" encoding="utf-8"?>
<!-- Generator: Adobe Illustrator 19.0.0, SVG Export Plug-In . SVG Version: 6.00 Build 0)  -->
<svg version="1.1" id="logo" xmlns="http://www.w3.org/2000/svg" xmlns:xlink="http://www.w3.org/1999/xlink" x="0px" y="0px"
	 viewBox="0 0 250.4 51.7" style="enable-background:new 0 0 250.4 51.7;" xml:space="preserve">
<polygon class="st0" points="22.4,0 22.4,6.1 39.5,16 39.5,35.7 22.4,45.6 5.3,35.7 5.3,9.9 0,12.9 0,38.8 22.4,51.7 44.8,38.8 44.8,12.9 "/>
<polygon class="st0" points="22.4,21.1 17.8,29.5 27,29.5 "/>
<polygon class="st0" points="22.4,11.5 17.4,14.4 17.4,19.6 22.4,16.8 30.3,21.3 30.3,30.4 22.4,35 14.5,30.4 14.5,4.6 10,7.2 10,33 22.4,40.2 
	34.8,33 34.8,18.7 "/>
<polyline class="st0" points="3.4,16.3 14.5,9.8 14.5,4.6 2.1,11.8 "/>
<path class="st0" d="M58.7,12.4h5.9v22.3h11.3v4.2H58.7V12.4z"/>
<path class="st0" d="M80.4,20.4c2.2-0.9,5.1-1.5,7.5-1.5c6.6,0,9.3,2.5,9.3,8.2v2.5c0,2,0,3.5,0.1,4.9c0,1.5,0.1,2.8,0.3,4.4h-4.9
	c-0.2-1-0.2-2.3-0.3-2.9h-0.1c-1.3,2.2-4.1,3.4-6.6,3.4c-3.8,0-7.5-2.1-7.5-5.8c0-2.9,1.5-4.6,3.7-5.6c2.1-1,4.9-1.1,7.2-1.1h3.1
	c0-3.2-1.5-4.2-4.8-4.2c-2.4,0-4.8,0.8-6.6,2.1L80.4,20.4z M87,35.6c1.7,0,3.1-0.7,3.9-1.7c0.9-1.1,1.2-2.5,1.2-4h-2.4
	c-2.5,0-6.2,0.4-6.2,3.4C83.5,34.9,85,35.6,87,35.6z"/>
<path class="st0" d="M102.3,10.4h5.6v11.4h0.1c1.5-1.9,3.5-3,6.4-3c6.6,0,9,4.8,9,10.2c0,5.4-2.4,10.3-9,10.3c-2.4,0-5-0.8-6.6-2.8h-0.1v2.4
	h-5.4V10.4z M112.8,35.4c3.7,0,4.7-3.6,4.7-6.3c0-2.6-1-6.2-4.6-6.2c-3.6,0-5,3.5-5,6.2C107.9,31.8,109.1,35.4,112.8,35.4z"/>
<path class="st0" d="M152.2,17.2c-1.8-0.7-3.9-1.1-5.9-1.1c-2,0-4.6,0.8-4.6,3.7c0,4.6,12.8,2.7,12.8,11.6c0,5.8-5.1,8-11,8
	c-3.2,0-4.6-0.4-7.5-1l0.5-4.8c2,1,4.3,1.6,6.6,1.6c2.2,0,5.2-1,5.2-3.4c0-5.1-12.8-3-12.8-11.7c0-5.9,5.1-8.1,10.2-8.1
	c2.5,0,4.8,0.3,7,1L152.2,17.2z"/>
<path class="st0" d="M158.7,19.3h5.3v2.8h0.1c1.3-1.9,3.4-3.2,6.7-3.2c6.6,0,9,4.8,9,10.2c0,5.4-2.4,10.3-9.2,10.3c-2.4,0-4.3-0.5-6.3-2.7h-0.1
	v10.2h-5.6V19.3z M164.3,29.1c0,2.8,1.2,6.3,4.9,6.3c3.7,0,4.7-3.6,4.7-6.3c0-2.6-1-6.2-4.6-6.2C165.8,22.8,164.3,26.3,164.3,29.1z"
	/>
<path class="st0" d="M184.7,20.4c2.2-0.9,5.1-1.5,7.5-1.5c6.6,0,9.3,2.5,9.3,8.2v2.5c0,2,0,3.5,0.1,4.9c0,1.5,0.1,2.8,0.3,4.4h-4.9
	c-0.2-1-0.2-2.3-0.3-2.9h-0.1c-1.3,2.2-4.1,3.4-6.6,3.4c-3.8,0-7.5-2.1-7.5-5.8c0-2.9,1.5-4.6,3.7-5.6c2.1-1,4.9-1.1,7.2-1.1h3.1
	c0-3.2-1.5-4.2-4.8-4.2c-2.4,0-4.8,0.8-6.6,2.1L184.7,20.4z M191.3,35.6c1.7,0,3.1-0.7,3.9-1.7c0.9-1.1,1.2-2.5,1.2-4H194
	c-2.5,0-6.2,0.4-6.2,3.4C187.7,34.9,189.3,35.6,191.3,35.6z"/>
<path class="st0" d="M220.5,23.6c-1-0.4-2.1-0.7-3.8-0.7c-3.5,0-5.7,2.5-5.7,6.2c0,3.6,1.9,6.4,5.8,6.4c1.6,0,3.3-0.5,4.3-0.9l0.3,4.2
	c-1.6,0.5-3.3,0.6-5.6,0.6c-7.1,0-10.6-4.4-10.6-10.3c0-5.7,3.7-10.1,10.4-10.1c2.3,0,3.9,0.2,5.4,0.6L220.5,23.6z"/>
<path class="st0" d="M241.8,37.8c-2,1-4.4,1.6-7.4,1.6c-7.1,0-11.2-3.7-11.2-10.1c0-5.7,3.3-10.3,10-10.3c8,0,10.2,5,10.2,11.8h-14.9
	c0.3,3.2,2.7,4.9,6.1,4.9c2.7,0,5.1-0.9,7.1-2V37.8z M238,27.2c-0.2-2.5-1.4-4.6-4.6-4.6c-3.1,0-4.7,2-5,4.6H238z"/>
<path class="st0" d="M246.4,11c2.2,0,4,1.8,4,4c0,2.2-1.8,4-4,4s-4-1.8-4-4C242.4,12.8,244.2,11,246.4,11z M246.4,18.1c1.6,0,2.9-1.3,2.9-3.1
	c0-1.9-1.3-3.1-2.9-3.1c-1.6,0-2.9,1.3-2.9,3.1C243.5,16.9,244.8,18.1,246.4,18.1z M244.8,12.7h1.7c1.1,0,1.8,0.3,1.8,1.3
	c0,0.8-0.5,1.1-1.2,1.2l1.2,1.9h-1l-1.1-1.9h-0.5v1.9h-1V12.7z M246.5,14.6c0.5,0,0.8-0.1,0.8-0.6c0-0.5-0.5-0.5-0.9-0.5h-0.7v1.1
	H246.5z"/>
</svg>
